<?xml version="1.0" encoding="utf-8"?>
<!-- Generator: Adobe Illustrator 26.0.3, SVG Export Plug-In . SVG Version: 6.00 Build 0)  -->
<svg version="1.1" id="Layer_1" xmlns="http://www.w3.org/2000/svg" xmlns:xlink="http://www.w3.org/1999/xlink" x="0px" y="0px"
	 viewBox="0 0 1080 1080" style="enable-background:new 0 0 1080 1080;" xml:space="preserve">
<style type="text/css">
	.st0{fill:#034EA2;}
</style>
<g>
	<path class="st0" d="M691.37,443.17c-54.5,0-85.97,40.85-85.97,96.82c0,55.99,31.47,96.83,85.97,96.83
		c54.5,0,85.97-40.85,85.97-96.83C777.34,484.02,745.88,443.17,691.37,443.17 M691.37,604.25c-34.63,0-47.97-31.87-47.97-64.26
		c0-32.37,13.35-64.26,47.97-64.26c34.61,0,47.97,31.88,47.97,64.26C739.35,572.38,725.99,604.25,691.37,604.25"/>
	<polygon class="st0" points="134.61,448.6 271.22,448.6 271.22,481.18 172.62,481.18 172.62,521.72 264.58,521.72 264.58,553.49 
		172.62,553.49 172.62,598.8 271.22,598.8 271.22,631.39 134.61,631.39 	"/>
	<path class="st0" d="M287.51,631.39h38v-54.83h34.43c46.52,0,77.77-22.88,77.77-63.98c0-41.09-31.25-63.98-77.77-63.98h-72.43
		V631.39z M359.94,543.99h-34.43v-62.82v-0.01h34.43c23.88,0,39.77,10.4,39.77,31.41C399.71,533.59,383.82,543.99,359.94,543.99"/>
	<path class="st0" d="M830.74,448.6h-39.03v182.79h37.24v-74.04c0-20.24-0.74-38.24-1.42-54.13c4.4,9.14,17.71,36.64,23.9,46.98
		l48.48,81.19h39.01V448.6h-37.24v72.21c0,20.24,0.74,40.09,1.41,55.97c-4.4-9.14-17.71-36.64-23.91-46.97L830.74,448.6z"/>
	<path class="st0" d="M480.86,570.91c0,24.56,20.43,34.13,42.17,34.13c14.21,0,37.24-4.14,37.24-23.02
		c0-19.91-28.17-23.67-55.33-30.91c-28.48-7.52-55.88-18.22-55.88-52.09c0-37.75,35.68-55.85,69.05-55.85
		c38.53,0,73.94,16.81,73.94,59.48h-38c-1.3-22.24-18.36-27.93-37.75-27.93c-12.94,0-29.24,5.43-29.24,20.96
		c0,14.21,9.28,16.42,55.58,28.32c13.44,3.36,55.62,11.49,55.62,53.38c0,33.87-26.62,59.22-76.81,59.22
		c-40.85,0-79.12-20.17-78.6-65.69H480.86z"/>
	<path class="st0" d="M957.2,466.88c0-10.1,8.18-18.29,18.28-18.29c10.09,0,18.28,8.18,18.28,18.29c0,10.09-8.18,18.28-18.28,18.28
		C965.38,485.16,957.2,476.98,957.2,466.88 M975.48,486.99c11.11,0,20.11-8.99,20.11-20.1c0-11.11-9.01-20.11-20.11-20.11
		c-11.11,0-20.11,9.01-20.11,20.11C955.36,477.99,964.37,486.99,975.48,486.99"/>
	<path class="st0" d="M977.4,466.34c2.09,0,3.9-1.46,3.9-4.01c0-2.56-1.81-4.02-3.9-4.02h-6.11v20.35h-4.09v-23.55h10.2
		c4.84,0,8,3.19,8,7.22c0,3.51-2.6,6.19-5.34,6.64l6.57,9.69h-4.9l-7.9-12.31H977.4z"/>
</g>
</svg>
